<svg width="100" height="100" viewBox="0 0 100 100" fill="none" xmlns="http://www.w3.org/2000/svg">
<rect width="100" height="100" fill="#FFDD00"/>
<path fill-rule="evenodd" clip-rule="evenodd" d="M49.5612 65.5582C47.9579 65.4623 46.3688 65.1938 44.8201 64.757C44.5519 64.6819 43.4672 64.2688 43.1869 64.1311C40.8666 63.0297 38.8762 61.3094 37.4231 59.1495C35.9699 56.9896 35.1072 54.469 34.9247 51.8503C34.7422 49.2316 35.2466 46.6105 36.3854 44.2601C37.5242 41.9096 39.2557 39.9157 41.3996 38.486C43.5436 37.0564 46.0215 36.2433 48.5753 36.1313C51.1291 36.0194 53.6655 36.6128 55.9202 37.8497C58.1749 39.0866 60.0655 40.9217 61.3951 43.164C62.7247 45.4063 63.4446 47.9737 63.48 50.5989H68.6477C68.6244 47.0609 67.6891 43.5924 65.9369 40.5463C64.1848 37.5002 61.6783 34.9851 58.6724 33.2569C55.6666 31.5288 52.2688 30.6493 48.8245 30.7078C45.3803 30.7664 42.0126 31.7609 39.0642 33.5903C36.1157 35.4197 33.6916 38.0186 32.0385 41.1226C30.3855 44.2266 29.5625 47.725 29.6532 51.2618C29.7439 54.7986 30.7451 58.2476 32.555 61.2579C34.3649 64.2682 36.9189 66.7324 39.9571 68.3998C40.9966 68.9398 42.0718 69.4042 43.1747 69.7894C45.0627 70.3267 46.9978 70.6705 48.9518 70.8159C49.5856 70.8159 51.8404 70.9035 52.4986 70.9035H91.9878V65.6082H52.5961C52.0842 65.6082 50.0244 65.5957 49.5612 65.5582ZM52.5961 57.2586C52.2182 57.2586 50.2559 57.2586 49.8903 57.2586C49.1616 57.1938 48.4372 57.0851 47.7208 56.9331C47.1952 56.795 46.6847 56.602 46.1973 56.3573C45.2743 55.8226 44.5029 55.05 43.9594 54.1157C43.4159 53.1814 43.1189 52.1176 43.0979 51.0294C43.0769 49.9413 43.3325 48.8662 43.8395 47.9105C44.3465 46.9548 45.0874 46.1513 45.9891 45.5795C46.8908 45.0077 47.922 44.6873 48.9811 44.6498C50.0401 44.6124 51.0904 44.8592 52.0282 45.366C52.966 45.8728 53.759 46.622 54.3288 47.5397C54.8986 48.4573 55.2255 49.5118 55.2774 50.5989H60.238C60.206 48.5734 59.6504 46.593 58.6282 44.8605C57.606 43.1281 56.1538 41.7058 54.4204 40.7394C52.687 39.773 50.7346 39.2971 48.7633 39.3606C46.7919 39.424 44.8724 40.0245 43.2013 41.1004C41.5302 42.1764 40.1675 43.6893 39.2529 45.484C38.3383 47.2788 37.9045 49.291 37.996 51.3146C38.0876 53.3382 38.7011 55.3004 39.7739 57.0003C40.8466 58.7003 42.3399 60.0768 44.101 60.989C44.7052 61.3153 45.3429 61.5714 46.0023 61.7526C47.1556 62.0352 48.3297 62.2194 49.5125 62.3034C49.9269 62.3034 51.9501 62.3034 52.3645 62.3034H91.939V57.2586H52.5961ZM26.5136 70.8784H21.3093V36.0777H13.704V30.7699H26.5136V70.8784ZM8 38.7941V43.9266H13.704V70.8784H18.7133V38.7941H8Z" fill="#D20A11"/>
<path d="M49.8903 57.2586H52.5961H91.939V62.3034H52.3645H49.5125C48.3297 62.2194 47.1556 62.0352 46.0023 61.7526C45.3429 61.5714 44.7052 61.3153 44.101 60.989C42.3399 60.0768 40.8466 58.7003 39.7739 57.0003C38.7011 55.3004 38.0876 53.3382 37.996 51.3146C37.9045 49.291 38.3383 47.2788 39.2529 45.484C40.1675 43.6893 41.5302 42.1764 43.2013 41.1004C44.8724 40.0245 46.7919 39.424 48.7633 39.3606C50.7346 39.2971 52.687 39.773 54.4204 40.7394C56.1538 41.7058 57.606 43.1281 58.6282 44.8605C59.6504 46.593 60.206 48.5734 60.238 50.5989H55.2774C55.2255 49.5118 54.8986 48.4573 54.3288 47.5397C53.759 46.622 52.966 45.8728 52.0282 45.366C51.0904 44.8592 50.0401 44.6124 48.9811 44.6498C47.922 44.6873 46.8908 45.0077 45.9891 45.5795C45.0874 46.1513 44.3465 46.9548 43.8395 47.9105C43.3325 48.8662 43.0769 49.9413 43.0979 51.0294C43.1189 52.1176 43.4159 53.1814 43.9594 54.1157C44.5029 55.05 45.2743 55.8226 46.1973 56.3573C46.6847 56.602 47.1952 56.795 47.7208 56.9331C48.4372 57.0851 49.1616 57.1938 49.8903 57.2586Z" fill="#D20A11"/>
<path fill-rule="evenodd" clip-rule="evenodd" d="M78.8981 31.1459C78.4516 31.1426 78.0087 31.2296 77.5949 31.4021C77.1812 31.5746 76.8045 31.8291 76.4865 32.1511C76.1684 32.4731 75.9153 32.8563 75.7414 33.2788C75.5676 33.7012 75.4765 34.1548 75.4733 34.6134C75.4733 35.5464 75.8341 36.4411 76.4764 37.1008C77.1187 37.7605 77.9898 38.1311 78.8981 38.1311C79.8064 38.1311 80.6776 37.7605 81.3198 37.1008C81.9621 36.4411 82.323 35.5464 82.323 34.6134C82.323 34.1538 82.2341 33.6988 82.0614 33.2748C81.8887 32.8508 81.6356 32.4663 81.317 32.1436C80.9983 31.821 80.6203 31.5666 80.2051 31.3953C79.7898 31.224 79.3456 31.1392 78.8981 31.1459ZM78.8981 37.5552C78.3356 37.5503 77.7871 37.3746 77.3216 37.0503C76.8561 36.726 76.4943 36.2675 76.2818 35.7326C76.0693 35.1976 76.0156 34.6101 76.1274 34.0439C76.2392 33.4776 76.5115 32.958 76.9101 32.5503C77.3087 32.1427 77.8158 31.8652 78.3676 31.7528C78.9193 31.6403 79.4911 31.698 80.011 31.9185C80.531 32.139 80.9758 32.5125 81.2896 32.9921C81.6034 33.4716 81.7721 34.0357 81.7745 34.6134C81.7761 35.0013 81.7027 35.3856 81.5586 35.7441C81.4145 36.1026 81.2025 36.4281 80.9349 36.7018C80.6673 36.9754 80.3495 37.1918 79.9999 37.3383C79.6502 37.4848 79.2757 37.5585 78.8981 37.5552Z" fill="#D20A11"/>
<path fill-rule="evenodd" clip-rule="evenodd" d="M80.2023 35.5518C80.2023 35.1637 80.1414 34.8007 79.7148 34.663C79.8856 34.623 80.038 34.5243 80.1466 34.3831C80.2552 34.2419 80.3136 34.0668 80.312 33.8869C80.3113 33.7419 80.2808 33.5987 80.2223 33.4668C80.1639 33.3348 80.0789 33.2171 79.973 33.1213C79.8671 33.0255 79.7426 32.9538 79.6078 32.911C79.4729 32.8682 79.3308 32.8552 79.1907 32.8729H77.7037V36.3405H78.3253V34.9134H78.8129C79.5198 34.9134 79.5807 35.2514 79.5807 35.5518C79.5807 36.1402 79.5807 36.2528 79.7148 36.3405H80.3364C80.2023 36.2028 80.251 36.0776 80.2023 35.5518ZM79.0566 34.4126H78.3253V33.3236H78.9469C79.3857 33.3236 79.6782 33.4613 79.6782 33.8869C79.6782 34.0997 79.5807 34.4126 79.0566 34.4126Z" fill="#D20A11"/>
</svg>
