<svg width="110" height="69" fill="none" xmlns="http://www.w3.org/2000/svg"><path fill-rule="evenodd" clip-rule="evenodd" d="M54.43 46.18c-2.1-.12-4.19-.47-6.21-1.04-.35-.1-1.77-.63-2.14-.81a18.81 18.81 0 0 1-7.55-6.47 19.3 19.3 0 0 1 5.2-26.84 18.49 18.49 0 0 1 26.2 6.08 19.33 19.33 0 0 1 2.72 9.65h6.77c-.03-4.6-1.26-9.1-3.55-13.05a25.76 25.76 0 0 0-9.51-9.47 25.17 25.17 0 0 0-25.68.43 25.81 25.81 0 0 0-9.2 9.79 26.4 26.4 0 0 0 .68 26.15 25.74 25.74 0 0 0 9.69 9.27c1.36.7 2.77 1.3 4.21 1.8 2.47.7 5 1.15 7.57 1.34.83 0 3.78.11 4.64.11h51.71v-6.87H58.4c-.67 0-3.37-.02-3.97-.07ZM58.4 35.4h-3.54c-.96-.08-1.9-.22-2.84-.42a10.3 10.3 0 0 1-2-.75 8.24 8.24 0 0 1-.27-14 7.88 7.88 0 0 1 10.92 2.55 8.23 8.23 0 0 1 1.24 3.97h6.5c-.05-2.63-.77-5.2-2.11-7.45a14.7 14.7 0 0 0-5.51-5.35 14.36 14.36 0 0 0-14.7.47 14.74 14.74 0 0 0-5.16 5.69 15.07 15.07 0 0 0 .68 14.96 14.67 14.67 0 0 0 8.15 6.17c1.52.37 3.05.6 4.6.71h55.56V35.4H58.4ZM24.24 53.1h-6.81V7.9H7.47V1h16.77v52.1ZM0 11.41v6.67h7.47v35h6.56V11.42H0Z" fill="#D20A11"/><path d="M54.86 35.4h55.06v6.55H54.36c-1.55-.1-3.08-.34-4.6-.71a14.67 14.67 0 0 1-8.16-6.17 15.04 15.04 0 0 1 4.5-20.65 14.38 14.38 0 0 1 20.2 4.88 15.05 15.05 0 0 1 2.1 7.45h-6.49a8.23 8.23 0 0 0-4.25-6.8 7.86 7.86 0 0 0-7.91.28 8.25 8.25 0 0 0 .27 14c.64.32 1.3.57 2 .75.93.2 1.88.34 2.84.42Z" fill="#D20A11"/><path fill-rule="evenodd" clip-rule="evenodd" d="M92.84 1.49a4.38 4.38 0 0 0-3.16 1.3A4.54 4.54 0 0 0 88.36 6c0 1.21.47 2.37 1.31 3.23a4.44 4.44 0 0 0 6.34 0 4.61 4.61 0 0 0 0-6.44 4.42 4.42 0 0 0-3.17-1.3Zm0 8.32a3.69 3.69 0 0 1-3.42-2.37 3.87 3.87 0 0 1 .82-4.13 3.71 3.71 0 0 1 4.06-.82A3.75 3.75 0 0 1 96.61 6a3.86 3.86 0 0 1-1.1 2.71 3.73 3.73 0 0 1-2.67 1.11Z" fill="#D20A11"/><path fill-rule="evenodd" clip-rule="evenodd" d="M94.55 7.21c0-.5-.08-.98-.64-1.15a1 1 0 0 0 .57-.37c.14-.18.22-.4.21-.64a1.35 1.35 0 0 0-.44-1 1.3 1.3 0 0 0-1.02-.32h-1.95v4.5h.81V6.38h.64c.93 0 1 .44 1 .83 0 .76 0 .91.18 1.02h.82c-.18-.17-.12-.34-.18-1.02Zm-1.5-1.48h-.96V4.32h.82c.57 0 .95.17.95.73 0 .27-.12.68-.81.68Z" fill="#D20A11"/><path d="M8.7 61.3H7.47v-1.93h3.33v8.39H8.7V61.3ZM18.32 67.38c-.65.43-1.42.65-2.2.62a4.32 4.32 0 0 1-2.9-1.39 4.48 4.48 0 0 1 0-6.08 4.33 4.33 0 0 1 2.9-1.4c.8 0 1.57.23 2.23.68v2.43a2.53 2.53 0 0 0-1.93-1 2.1 2.1 0 0 0-1.55.74 2.19 2.19 0 0 0-.52 1.66 2.12 2.12 0 0 0 .54 1.6 2.04 2.04 0 0 0 1.53.66 2.69 2.69 0 0 0 1.93-.9l-.03 2.38ZM20.48 61.76a1.18 1.18 0 0 1 1.1.75 1.24 1.24 0 0 1-.26 1.33 1.19 1.19 0 0 1-2.04-.86c0-.33.13-.63.36-.86.22-.23.52-.36.84-.36Zm0 3.77a1.18 1.18 0 0 1 1.1.75 1.24 1.24 0 0 1-.26 1.33 1.19 1.19 0 0 1-2.04-.86c0-.32.13-.63.36-.86.22-.23.52-.36.84-.36ZM26.27 66.59c-1.4 0-3.85-.41-3.85-3.35a3.42 3.42 0 0 1 1.17-2.57 3.29 3.29 0 0 1 2.68-.75V59h2.27v.9a3.25 3.25 0 0 1 2.65.74 3.36 3.36 0 0 1 1.2 2.52c0 2.94-2.45 3.37-3.85 3.35v1.17h-2.27v-1.1Zm.2-5.04c-.43 0-.85.17-1.15.49a1.7 1.7 0 0 0 0 2.36c.3.32.72.5 1.16.5v-3.35Zm1.96 3.34c.43 0 .85-.17 1.16-.49a1.7 1.7 0 0 0 0-2.36c-.31-.32-.73-.5-1.16-.5v3.35ZM33.15 59.37h3.43a2.72 2.72 0 0 1 1.95.82 2.82 2.82 0 0 1 .6 3.07 2.82 2.82 0 0 1-1.5 1.52c-.33.14-.69.21-1.05.21h-1.15v2.77h-2.28v-8.4Zm2.28 3.8h.62c1.01 0 1.12-.62 1.12-.97 0-.36-.14-.96-1.12-.96h-.65l.03 1.93ZM41.77 59.37h2.76l2.9 8.39H45l-.46-1.45h-2.76l-.46 1.45h-2.45l2.9-8.4Zm.45 5.1h1.81l-.92-3.1-.9 3.1ZM48.04 59.37h2.27v3.02h2.77v-3.02h2.29v8.39h-2.29V64.4h-2.77v3.35h-2.27v-8.4ZM60.63 64.49c-.52.09-1.06.12-1.6.11-2.74 0-2.86-1.41-2.86-2.8v-2.43h2.28v2.18c0 .65 0 1.26 1.26 1.26h.86v-3.25h2.28v8.4h-2.22v-3.47ZM66.38 59.37h2.78l2.89 8.39h-2.48l-.45-1.45h-2.74l-.45 1.45h-2.47l2.92-8.4Zm.46 5.1h1.85l-.92-3.1-.93 3.1ZM74.7 59.37v5.04l3.19-5.04h2.23v8.39H77.9v-5.03l-3.2 5.03h-2.23v-8.4h2.24Zm4.03-1.8a2.56 2.56 0 0 1-2.44 1.34 2.52 2.52 0 0 1-2.44-1.33l1.3-.5a1.3 1.3 0 0 0 1.15.7 1.28 1.28 0 0 0 1.14-.7l1.3.5ZM81.08 59.92c.83-.5 1.78-.77 2.74-.78 1.84 0 3.2.96 3.2 2.37a2.02 2.02 0 0 1-1.33 1.89c.43.12.8.4 1.07.76.26.37.39.82.37 1.27 0 1.63-1.42 2.57-3.2 2.57a4.5 4.5 0 0 1-3.19-1.25l.95-1.63c.53.54 1.23.88 1.98.95.97 0 1.2-.57 1.2-.91 0-.35-.34-.88-1.32-.88h-1.37v-1.63h1.3c1.03 0 1.2-.49 1.2-.86s-.47-.85-1.16-.85c-.58.03-1.14.23-1.6.59l-.84-1.61ZM90.2 59.37v5.04l3.2-5.04h2.24v8.39H93.4v-5.03l-3.2 5.03h-2.23v-8.4h2.24ZM96.51 59.37h2.29v3.02h2.77v-3.02h2.29v8.39h-2.29V64.4H98.8v3.35H96.5v-8.4ZM105 59.37h4.89v2.01h-2.62v6.38H105v-8.4Z" fill="#D20A11"/></svg>