<svg width="298" height="258" viewBox="0 0 298 258" fill="none" xmlns="http://www.w3.org/2000/svg">
<g opacity="0.15">
<path fill-rule="evenodd" clip-rule="evenodd" d="M225.859 154.408C233.515 159.455 240.61 165.311 247.029 171.877C248.141 173.012 252.333 178.137 253.329 179.614C261.677 191.648 266.64 205.779 267.699 220.537C268.758 235.294 265.876 250.138 259.352 263.522C252.828 276.906 242.9 288.341 230.604 296.635C218.308 304.93 204.092 309.781 189.438 310.684C174.783 311.586 160.225 308.507 147.281 301.766C134.337 295.026 123.479 284.871 115.839 272.359C108.199 259.848 104.056 245.437 103.841 230.627C103.626 215.817 107.347 201.151 114.617 188.156L89.0666 173.404C79.1484 190.849 73.9364 210.556 73.961 230.52C73.9856 250.484 79.2458 269.993 89.2065 287.062C99.1672 304.131 113.473 318.151 130.668 327.695C147.863 337.239 167.335 341.967 187.101 341.398C206.867 340.829 226.223 334.983 243.198 324.455C260.174 313.927 274.165 299.092 283.746 281.461C293.328 263.829 298.159 244.029 297.747 224.076C297.336 204.123 291.697 184.729 281.404 167.866C277.795 162.246 273.796 156.896 269.435 151.855C261.624 143.827 253.032 136.613 243.783 130.322C240.649 128.513 229.749 121.646 226.495 119.767L0.000441587 -10.9997L-15.0165 15.0104L210.996 145.499C213.527 146.96 223.676 152.901 225.859 154.408ZM187.317 186.512C189.185 187.591 198.887 193.192 200.695 194.236C204.114 196.635 207.388 199.236 210.498 202.028C212.705 204.206 214.682 206.612 216.398 209.205C219.446 214.466 221.068 220.463 221.106 226.604C221.144 232.745 219.595 238.818 216.613 244.223C213.631 249.628 209.319 254.179 204.101 257.426C198.884 260.673 192.942 262.505 186.863 262.74C180.783 262.974 174.775 261.605 169.433 258.765C164.09 255.926 159.598 251.716 156.398 246.549C153.198 241.383 151.403 235.439 151.188 229.305C150.973 223.171 152.347 217.058 155.173 211.57L130.647 197.41C125.061 207.451 122.191 218.764 122.332 230.192C122.473 241.62 125.62 252.751 131.45 262.446C137.279 272.142 145.583 280.052 155.51 285.368C165.437 290.684 176.63 293.214 187.944 292.699C199.258 292.184 210.285 288.643 219.897 282.438C229.51 276.233 237.361 267.587 242.647 257.386C247.933 247.185 250.464 235.795 249.981 224.383C249.498 212.97 246.018 201.946 239.898 192.438C237.836 189.111 235.41 186.032 232.663 183.26C227.762 178.58 222.48 174.324 216.87 170.534C214.821 169.351 204.818 163.576 202.769 162.393L26.6202 60.6936L12.3133 85.4739L187.317 186.512Z" fill="white"/>
<path d="M200.695 194.236L187.317 186.512L12.3133 85.4739L26.6202 60.6936L202.769 162.393L216.87 170.534C222.48 174.324 227.762 178.58 232.663 183.26C235.41 186.032 237.836 189.111 239.898 192.438C246.018 201.946 249.498 212.97 249.981 224.383C250.464 235.795 247.933 247.185 242.647 257.386C237.361 267.587 229.51 276.233 219.897 282.438C210.285 288.643 199.258 292.184 187.944 292.699C176.63 293.214 165.437 290.684 155.51 285.368C145.583 280.052 137.279 272.142 131.45 262.446C125.62 252.751 122.473 241.62 122.332 230.192C122.191 218.764 125.061 207.451 130.647 197.41L155.173 211.57C152.347 217.058 150.973 223.171 151.188 229.305C151.403 235.439 153.198 241.383 156.398 246.549C159.598 251.716 164.09 255.926 169.433 258.765C174.775 261.605 180.783 262.974 186.863 262.74C192.942 262.505 198.884 260.673 204.101 257.426C209.319 254.179 213.631 249.628 216.613 244.223C219.595 238.818 221.144 232.745 221.106 226.604C221.068 220.463 219.446 214.466 216.398 209.205C214.682 206.612 212.705 204.206 210.498 202.028C207.388 199.236 204.114 196.635 200.695 194.236Z" fill="white"/>
</g>
</svg>
