<svg width="314" height="188" viewBox="0 0 314 188" fill="none" xmlns="http://www.w3.org/2000/svg">
<g opacity="0.05">
<path fill-rule="evenodd" clip-rule="evenodd" d="M241.859 19.4078C249.515 24.4555 256.61 30.3107 263.029 36.8772C264.141 38.0115 268.333 43.1371 269.329 44.6137C277.677 56.6476 282.64 70.7791 283.699 85.5367C284.758 100.294 281.876 115.138 275.352 128.522C268.828 141.906 258.9 153.341 246.604 161.635C234.308 169.93 220.092 174.781 205.438 175.684C190.783 176.586 176.225 173.507 163.281 166.766C150.337 160.026 139.479 149.871 131.839 137.359C124.199 124.848 120.056 110.437 119.841 95.627C119.626 80.8175 123.347 66.1512 130.617 53.1556L105.067 38.4039C95.1484 55.8487 89.9364 75.5557 89.961 95.52C89.9856 115.484 95.2458 134.993 105.207 152.062C115.167 169.131 129.473 183.151 146.668 192.695C163.863 202.239 183.335 206.967 203.101 206.398C222.867 205.829 242.223 199.983 259.198 189.455C276.174 178.927 290.165 164.092 299.746 146.461C309.328 128.829 314.159 109.029 313.747 89.0762C313.336 69.1231 307.697 49.7285 297.404 32.8657C293.795 27.2456 289.796 21.8957 285.435 16.8553C277.624 8.82657 269.032 1.61349 259.783 -4.67815C256.649 -6.48732 245.749 -13.3542 242.495 -15.233L16.0004 -146L0.983518 -119.99L226.996 10.4988C229.527 11.96 239.676 17.9013 241.859 19.4078ZM203.317 51.5123C205.185 52.5908 214.887 58.1923 216.695 59.236C220.114 61.6346 223.388 64.2363 226.498 67.0277C228.705 69.2065 230.682 71.6115 232.398 74.2052C235.446 79.4661 237.068 85.463 237.106 91.604C237.144 97.7449 235.595 103.818 232.613 109.223C229.631 114.628 225.319 119.179 220.101 122.426C214.884 125.673 208.942 127.505 202.863 127.74C196.783 127.974 190.775 126.605 185.433 123.765C180.09 120.926 175.598 116.716 172.398 111.549C169.198 106.383 167.403 100.439 167.188 94.3051C166.973 88.171 168.347 82.0584 171.173 76.5705L146.647 62.4102C141.061 72.4507 138.191 83.7641 138.332 95.1919C138.473 106.62 141.62 117.751 147.45 127.446C153.279 137.142 161.583 145.052 171.51 150.368C181.437 155.684 192.63 158.214 203.944 157.699C215.258 157.184 226.285 153.643 235.897 147.438C245.51 141.233 253.361 132.587 258.647 122.386C263.933 112.185 266.464 100.795 265.981 89.3827C265.498 77.9705 262.018 66.946 255.898 57.4382C253.836 54.1108 251.41 51.0324 248.663 48.2598C243.762 43.5799 238.48 39.3236 232.87 35.5343C230.821 34.3514 220.818 28.576 218.769 27.393L42.6202 -74.3064L28.3133 -49.5261L203.317 51.5123Z" fill="white"/>
<path d="M216.695 59.236L203.317 51.5123L28.3133 -49.5261L42.6202 -74.3064L218.769 27.393L232.87 35.5343C238.48 39.3236 243.762 43.5799 248.663 48.2598C251.41 51.0324 253.836 54.1108 255.898 57.4382C262.018 66.946 265.498 77.9705 265.981 89.3827C266.464 100.795 263.933 112.185 258.647 122.386C253.361 132.587 245.51 141.233 235.897 147.438C226.285 153.643 215.258 157.184 203.944 157.699C192.63 158.214 181.437 155.684 171.51 150.368C161.583 145.052 153.279 137.142 147.45 127.446C141.62 117.751 138.473 106.62 138.332 95.1919C138.191 83.7641 141.061 72.4507 146.647 62.4102L171.173 76.5705C168.347 82.0584 166.973 88.171 167.188 94.3051C167.403 100.439 169.198 106.383 172.398 111.549C175.598 116.716 180.09 120.926 185.433 123.765C190.775 126.605 196.783 127.974 202.863 127.74C208.942 127.505 214.884 125.673 220.101 122.426C225.319 119.179 229.631 114.628 232.613 109.223C235.595 103.818 237.144 97.7449 237.106 91.604C237.068 85.463 235.446 79.4661 232.398 74.2052C230.682 71.6115 228.705 69.2065 226.498 67.0277C223.388 64.2363 220.114 61.6346 216.695 59.236Z" fill="white"/>
</g>
</svg>
