<svg width="366" height="377" viewBox="0 0 366 377" fill="none" xmlns="http://www.w3.org/2000/svg">
<g opacity="0.05">
<path fill-rule="evenodd" clip-rule="evenodd" d="M261.093 106.013C272.155 113.307 282.408 121.767 291.683 131.256C293.291 132.895 299.348 140.302 300.786 142.435C312.85 159.824 320.021 180.244 321.551 201.569C323.082 222.893 318.917 244.342 309.49 263.682C300.062 283.022 285.718 299.545 267.95 311.531C250.182 323.516 229.64 330.526 208.464 331.83C187.288 333.134 166.253 328.685 147.549 318.945C128.844 309.205 113.155 294.531 102.115 276.452C91.0752 258.373 85.0881 237.549 84.7776 216.149C84.467 194.749 89.8443 173.557 100.349 154.778L63.4289 133.462C49.0972 158.67 41.5659 187.146 41.6014 215.994C41.637 244.843 49.238 273.033 63.6311 297.697C78.0243 322.362 98.6959 342.62 123.543 356.412C148.39 370.203 176.526 377.035 205.088 376.213C233.649 375.39 261.618 366.943 286.148 351.73C310.679 336.517 330.895 315.081 344.74 289.603C358.585 264.125 365.566 235.515 364.971 206.683C364.376 177.851 356.228 149.826 341.354 125.459C336.141 117.338 330.362 109.608 324.06 102.324C312.774 90.723 300.357 80.3001 286.992 71.2088C282.464 68.5945 266.714 58.6719 262.012 55.9572L-65.271 -133L-86.9704 -95.4155L239.616 93.1393C243.273 95.2508 257.938 103.836 261.093 106.013ZM205.4 152.403C208.099 153.962 222.119 162.056 224.731 163.564C229.672 167.03 234.402 170.79 238.897 174.823C242.086 177.972 244.943 181.447 247.422 185.195C251.826 192.797 254.17 201.462 254.225 210.336C254.28 219.209 252.042 227.984 247.733 235.795C243.424 243.605 237.192 250.181 229.653 254.873C222.114 259.566 213.529 262.212 204.743 262.551C195.958 262.891 187.277 260.912 179.558 256.809C171.838 252.706 165.346 246.622 160.722 239.156C156.099 231.691 153.504 223.103 153.194 214.239C152.883 205.375 154.868 196.542 158.952 188.612L123.512 168.151C115.44 182.659 111.294 199.007 111.498 215.52C111.702 232.033 116.248 248.118 124.672 262.128C133.096 276.137 145.095 287.568 159.439 295.249C173.783 302.93 189.958 306.586 206.306 305.842C222.654 305.098 238.589 299.981 252.479 291.015C266.368 282.049 277.713 269.556 285.351 254.815C292.99 240.075 296.647 223.617 295.949 207.126C295.251 190.635 290.223 174.705 281.38 160.966C278.4 156.158 274.893 151.71 270.925 147.704C263.843 140.941 256.21 134.791 248.104 129.315C245.143 127.606 230.688 119.261 227.728 117.551L-26.8056 -29.4035L-47.479 6.40376L205.4 152.403Z" fill="white"/>
<path d="M224.731 163.564L205.4 152.403L-47.479 6.40376L-26.8056 -29.4035L227.728 117.551L248.104 129.315C256.21 134.791 263.843 140.941 270.925 147.704C274.893 151.71 278.4 156.158 281.38 160.966C290.223 174.705 295.251 190.635 295.949 207.126C296.647 223.617 292.99 240.075 285.351 254.815C277.713 269.556 266.368 282.049 252.479 291.015C238.589 299.981 222.654 305.098 206.306 305.842C189.958 306.586 173.783 302.93 159.439 295.249C145.095 287.568 133.096 276.137 124.672 262.128C116.248 248.118 111.702 232.033 111.498 215.52C111.294 199.007 115.44 182.659 123.512 168.151L158.952 188.612C154.868 196.542 152.883 205.375 153.194 214.239C153.504 223.103 156.099 231.691 160.722 239.156C165.346 246.622 171.838 252.706 179.558 256.809C187.277 260.912 195.958 262.891 204.743 262.551C213.529 262.212 222.114 259.566 229.653 254.873C237.192 250.181 243.424 243.605 247.733 235.795C252.042 227.984 254.28 219.209 254.225 210.336C254.17 201.462 251.826 192.797 247.422 185.195C244.943 181.447 242.086 177.972 238.897 174.823C234.402 170.79 229.672 167.03 224.731 163.564Z" fill="white"/>
</g>
</svg>
