<svg width="259" height="342" viewBox="0 0 259 342" fill="none" xmlns="http://www.w3.org/2000/svg">
<g opacity="0.15">
<path fill-rule="evenodd" clip-rule="evenodd" d="M186.859 154.408C194.514 159.455 201.61 165.311 208.028 171.877C209.141 173.012 213.333 178.137 214.328 179.614C222.677 191.648 227.639 205.779 228.698 220.537C229.758 235.294 226.875 250.138 220.351 263.522C213.827 276.906 203.9 288.341 191.604 296.635C179.307 304.93 165.092 309.781 150.437 310.684C135.782 311.586 121.225 308.507 108.281 301.766C95.3365 295.026 84.4789 284.871 76.8387 272.359C69.1986 259.848 65.0552 245.437 64.8403 230.627C64.6254 215.817 68.3467 201.151 75.6167 188.156L50.0661 173.404C40.1479 190.849 34.9359 210.556 34.9605 230.52C34.9851 250.484 40.2453 269.993 50.206 287.062C60.1667 304.131 74.4724 318.151 91.6677 327.695C108.863 337.239 128.334 341.967 148.1 341.398C167.866 340.829 187.222 334.983 204.198 324.455C221.174 313.927 235.164 299.092 244.746 281.461C254.328 263.829 259.158 244.029 258.747 224.076C258.335 204.123 252.696 184.729 242.403 167.866C238.795 162.246 234.796 156.896 230.435 151.855C222.624 143.827 214.031 136.613 204.782 130.322C201.648 128.513 190.749 121.646 187.495 119.767L-39 -10.9997L-54.017 15.0104L171.996 145.499C174.527 146.96 184.675 152.901 186.859 154.408ZM148.316 186.512C150.185 187.591 159.887 193.192 161.694 194.236C165.114 196.635 168.387 199.236 171.498 202.028C173.705 204.206 175.682 206.612 177.397 209.205C180.445 214.466 182.068 220.463 182.106 226.604C182.143 232.745 180.595 238.818 177.613 244.223C174.631 249.628 170.318 254.179 165.101 257.426C159.884 260.673 153.942 262.505 147.862 262.74C141.782 262.974 135.775 261.605 130.432 258.765C125.09 255.926 120.597 251.716 117.397 246.549C114.198 241.383 112.402 235.439 112.187 229.305C111.972 223.171 113.346 217.058 116.172 211.57L91.6462 197.41C86.0601 207.451 83.1907 218.764 83.3318 230.192C83.4729 241.62 86.6194 252.751 92.4492 262.446C98.2789 272.142 106.582 280.052 116.509 285.368C126.436 290.684 137.63 293.214 148.943 292.699C160.257 292.184 171.285 288.643 180.897 282.438C190.509 276.233 198.36 267.587 203.646 257.386C208.932 247.185 211.464 235.795 210.981 224.383C210.498 212.97 207.018 201.946 200.898 192.438C198.836 189.111 196.409 186.032 193.663 183.26C188.762 178.58 183.479 174.324 177.869 170.534C175.82 169.351 165.817 163.576 163.768 162.393L-12.3803 60.6936L-26.6872 85.4739L148.316 186.512Z" fill="white"/>
<path d="M161.694 194.236L148.316 186.512L-26.6872 85.4739L-12.3803 60.6936L163.768 162.393L177.869 170.534C183.479 174.324 188.762 178.58 193.663 183.26C196.409 186.032 198.836 189.111 200.898 192.438C207.018 201.946 210.498 212.97 210.981 224.383C211.464 235.795 208.932 247.185 203.646 257.386C198.36 267.587 190.509 276.233 180.897 282.438C171.285 288.643 160.257 292.184 148.943 292.699C137.63 293.214 126.436 290.684 116.509 285.368C106.582 280.052 98.2789 272.142 92.4492 262.446C86.6194 252.751 83.4729 241.62 83.3318 230.192C83.1907 218.764 86.0601 207.451 91.6462 197.41L116.172 211.57C113.346 217.058 111.972 223.171 112.187 229.305C112.402 235.439 114.198 241.383 117.397 246.549C120.597 251.716 125.09 255.926 130.432 258.765C135.775 261.605 141.782 262.974 147.862 262.74C153.942 262.505 159.884 260.673 165.101 257.426C170.318 254.179 174.631 249.628 177.613 244.223C180.595 238.818 182.143 232.745 182.106 226.604C182.068 220.463 180.445 214.466 177.397 209.205C175.682 206.612 173.705 204.206 171.498 202.028C168.387 199.236 165.114 196.635 161.694 194.236Z" fill="white"/>
</g>
</svg>
