<svg width="314" height="302" viewBox="0 0 314 302" fill="none" xmlns="http://www.w3.org/2000/svg">
<g opacity="0.05">
<path fill-rule="evenodd" clip-rule="evenodd" d="M241.859 154.408C249.514 159.455 256.61 165.311 263.028 171.877C264.141 173.012 268.333 178.137 269.328 179.614C277.677 191.648 282.639 205.779 283.698 220.537C284.758 235.294 281.875 250.138 275.351 263.522C268.827 276.906 258.9 288.341 246.604 296.635C234.307 304.93 220.092 309.781 205.437 310.684C190.782 311.586 176.225 308.507 163.281 301.766C150.336 295.026 139.479 284.871 131.839 272.359C124.199 259.848 120.055 245.437 119.84 230.627C119.625 215.817 123.347 201.151 130.617 188.156L105.066 173.404C95.1479 190.849 89.9359 210.556 89.9605 230.52C89.9851 250.484 95.2453 269.993 105.206 287.062C115.167 304.131 129.472 318.151 146.668 327.695C163.863 337.239 183.334 341.967 203.1 341.398C222.866 340.829 242.222 334.983 259.198 324.455C276.174 313.927 290.164 299.092 299.746 281.461C309.328 263.829 314.158 244.029 313.747 224.076C313.335 204.123 307.696 184.729 297.403 167.866C293.795 162.246 289.796 156.896 285.435 151.855C277.624 143.827 269.031 136.613 259.782 130.322C256.648 128.513 245.749 121.646 242.495 119.767L16 -10.9997L0.98303 15.0104L226.996 145.499C229.527 146.96 239.675 152.901 241.859 154.408ZM203.316 186.512C205.185 187.591 214.887 193.192 216.694 194.236C220.114 196.635 223.387 199.236 226.498 202.028C228.705 204.206 230.682 206.612 232.397 209.205C235.445 214.466 237.068 220.463 237.106 226.604C237.143 232.745 235.595 238.818 232.613 244.223C229.631 249.628 225.318 254.179 220.101 257.426C214.884 260.673 208.942 262.505 202.862 262.74C196.782 262.974 190.775 261.605 185.432 258.765C180.09 255.926 175.597 251.716 172.397 246.549C169.198 241.383 167.402 235.439 167.187 229.305C166.972 223.171 168.346 217.058 171.172 211.57L146.646 197.41C141.06 207.451 138.191 218.764 138.332 230.192C138.473 241.62 141.619 252.751 147.449 262.446C153.279 272.142 161.582 280.052 171.509 285.368C181.436 290.684 192.63 293.214 203.943 292.699C215.257 292.184 226.285 288.643 235.897 282.438C245.509 276.233 253.36 267.587 258.646 257.386C263.932 247.185 266.464 235.795 265.981 224.383C265.498 212.97 262.018 201.946 255.898 192.438C253.836 189.111 251.409 186.032 248.663 183.26C243.762 178.58 238.479 174.324 232.869 170.534C230.82 169.351 220.817 163.576 218.768 162.393L42.6197 60.6936L28.3128 85.4739L203.316 186.512Z" fill="white"/>
<path d="M216.694 194.236L203.316 186.512L28.3128 85.4739L42.6197 60.6936L218.768 162.393L232.869 170.534C238.479 174.324 243.762 178.58 248.663 183.26C251.409 186.032 253.836 189.111 255.898 192.438C262.018 201.946 265.498 212.97 265.981 224.383C266.464 235.795 263.932 247.185 258.646 257.386C253.36 267.587 245.509 276.233 235.897 282.438C226.285 288.643 215.257 292.184 203.943 292.699C192.63 293.214 181.436 290.684 171.509 285.368C161.582 280.052 153.279 272.142 147.449 262.446C141.619 252.751 138.473 241.62 138.332 230.192C138.191 218.764 141.06 207.451 146.646 197.41L171.172 211.57C168.346 217.058 166.972 223.171 167.187 229.305C167.402 235.439 169.198 241.383 172.397 246.549C175.597 251.716 180.09 255.926 185.432 258.765C190.775 261.605 196.782 262.974 202.862 262.74C208.942 262.505 214.884 260.673 220.101 257.426C225.318 254.179 229.631 249.628 232.613 244.223C235.595 238.818 237.143 232.745 237.106 226.604C237.068 220.463 235.445 214.466 232.397 209.205C230.682 206.612 228.705 204.206 226.498 202.028C223.387 199.236 220.114 196.635 216.694 194.236Z" fill="white"/>
</g>
</svg>
