<svg width="663" height="385" viewBox="0 0 663 385" fill="none" xmlns="http://www.w3.org/2000/svg">
<path fill-rule="evenodd" clip-rule="evenodd" d="M192.339 51.1629C176.876 52.0785 161.55 54.6436 146.613 58.8162C144.027 59.5336 133.565 63.4798 130.862 64.7952C108.483 75.3168 89.2871 91.7497 75.2724 112.382C61.2576 133.015 52.9369 157.093 51.1768 182.108C49.4166 207.123 54.2814 232.161 65.2645 254.614C76.2476 277.067 92.9473 296.114 113.624 309.771C134.302 323.427 158.2 331.195 182.83 332.264C207.461 333.333 231.922 327.665 253.668 315.85C275.413 304.034 293.647 286.504 306.47 265.084C319.294 243.665 326.237 219.139 326.578 194.063H376.418C376.194 227.859 367.173 260.992 350.274 290.09C333.376 319.188 309.202 343.214 280.212 359.722C251.222 376.23 218.452 384.632 185.234 384.072C152.016 383.513 119.537 374.013 91.1 356.537C62.6633 339.062 39.2843 314.236 23.3414 284.585C7.39853 254.933 -0.539206 221.515 0.33576 187.73C1.21073 153.944 10.8672 120.997 28.3227 92.2413C45.7782 63.4851 70.4098 39.9457 99.7115 24.018C109.737 18.8594 120.107 14.424 130.744 10.7445C148.952 5.6116 167.616 2.32699 186.462 0.938843C192.574 0.938843 214.32 0.101807 220.668 0.101807H662.477V50.6847H221.608C216.671 50.6847 196.806 50.8042 192.339 51.1629ZM221.608 130.445C217.964 130.445 199.039 130.445 195.513 130.445C188.484 131.064 181.498 132.103 174.589 133.554C169.52 134.874 164.597 136.717 159.896 139.055C150.994 144.162 143.554 151.542 138.312 160.468C133.07 169.393 130.206 179.554 130.003 189.949C129.8 200.344 132.266 210.613 137.156 219.743C142.046 228.873 149.191 236.548 157.887 242.01C166.584 247.472 176.529 250.533 186.744 250.891C196.958 251.249 207.087 248.89 216.132 244.049C225.177 239.208 232.824 232.052 238.32 223.285C243.815 214.519 246.968 204.447 247.469 194.063H295.311C295.002 213.411 289.644 232.329 279.785 248.878C269.926 265.427 255.921 279.013 239.203 288.245C222.485 297.477 203.656 302.023 184.643 301.417C165.63 300.811 147.117 295.075 131 284.797C114.883 274.518 101.741 260.067 92.9202 242.922C84.099 225.777 79.9157 206.556 80.7985 187.225C81.6814 167.895 87.5988 149.151 97.9447 132.912C108.291 116.673 122.693 103.524 139.678 94.8101C145.505 91.6933 151.655 89.2467 158.015 87.5156C169.138 84.8168 180.461 83.057 191.869 82.2541C195.865 82.2541 215.378 82.2541 219.375 82.2541H562.977V130.445L221.608 130.445Z" fill="#F5F5F5"/>
<path d="M195.513 130.445H221.608L562.977 130.445V82.2541H219.375H191.869C180.461 83.057 169.138 84.8168 158.015 87.5156C151.655 89.2467 145.505 91.6933 139.678 94.8101C122.693 103.524 108.291 116.673 97.9447 132.912C87.5988 149.151 81.6814 167.895 80.7985 187.225C79.9157 206.556 84.099 225.777 92.9202 242.922C101.741 260.067 114.883 274.518 131 284.797C147.117 295.075 165.63 300.811 184.643 301.417C203.656 302.023 222.485 297.477 239.203 288.245C255.921 279.013 269.926 265.427 279.785 248.878C289.644 232.329 295.002 213.411 295.311 194.063H247.469C246.968 204.447 243.815 214.519 238.32 223.285C232.824 232.052 225.177 239.208 216.132 244.049C207.087 248.89 196.958 251.249 186.744 250.891C176.529 250.533 166.584 247.472 157.887 242.01C149.191 236.548 142.046 228.873 137.156 219.743C132.266 210.613 129.8 200.344 130.003 189.949C130.206 179.554 133.07 169.393 138.312 160.468C143.554 151.542 150.994 144.162 159.896 139.055C164.597 136.717 169.52 134.874 174.589 133.554C181.498 132.103 188.484 131.064 195.513 130.445Z" fill="#F5F5F5"/>
</svg>
